<svg width="34" height="34" viewBox="0 0 34 34" fill="none" xmlns="http://www.w3.org/2000/svg">
<g clip-path="url(#clip0_158_11043)">
<rect width="33.9411" height="33.9411" rx="16.9706" fill="#228B22"/>
<path d="M21.7435 13.2582L13.2582 21.7435C12.9683 22.0334 12.4875 22.0334 12.1976 21.7435C11.9077 21.4536 11.9077 20.9727 12.1976 20.6828L20.6828 12.1975C20.9728 11.9076 21.4536 11.9076 21.7435 12.1975C22.0334 12.4874 22.0334 12.9683 21.7435 13.2582Z" fill="white"/>
<path d="M21.7435 21.7434C21.4536 22.0333 20.9728 22.0333 20.6828 21.7434L12.1976 13.2581C11.9077 12.9682 11.9077 12.4874 12.1976 12.1975C12.4875 11.9075 12.9683 11.9075 13.2582 12.1975L21.7435 20.6827C22.0334 20.9726 22.0334 21.4535 21.7435 21.7434Z" fill="white"/>
</g>
<defs>
<clipPath id="clip0_158_11043">
<rect width="33.9411" height="33.9411" rx="16.9706" fill="white"/>
</clipPath>
</defs>
</svg>
