<svg width="51" height="51" viewBox="0 0 51 51" fill="none" xmlns="http://www.w3.org/2000/svg">
<path d="M45.7511 22.9609L42.9177 19.6692C42.3761 19.0442 41.9386 17.8775 41.9386 17.0442V13.5025C41.9386 11.2942 40.1261 9.48169 37.9177 9.48169H34.3761C33.5636 9.48169 32.3761 9.04419 31.7511 8.50252L28.4594 5.66919C27.0219 4.44002 24.6677 4.44002 23.2094 5.66919L19.9386 8.52336C19.3136 9.04419 18.1261 9.48169 17.3136 9.48169H13.7094C11.5011 9.48169 9.68856 11.2942 9.68856 13.5025V17.065C9.68856 17.8775 9.25106 19.0442 8.73022 19.6692L5.91772 22.9817C4.70939 24.4192 4.70939 26.7525 5.91772 28.19L8.73022 31.5025C9.25106 32.1275 9.68856 33.2942 9.68856 34.1067V37.6692C9.68856 39.8775 11.5011 41.69 13.7094 41.69H17.3136C18.1261 41.69 19.3136 42.1275 19.9386 42.6692L23.2302 45.5025C24.6677 46.7317 27.0219 46.7317 28.4802 45.5025L31.7719 42.6692C32.3969 42.1275 33.5636 41.69 34.3969 41.69H37.9386C40.1469 41.69 41.9594 39.8775 41.9594 37.6692V34.1275C41.9594 33.315 42.3969 32.1275 42.9386 31.5025L45.7719 28.2109C46.9802 26.7734 46.9802 24.3984 45.7511 22.9609ZM34.5011 21.6484L24.4386 31.7109C24.1469 32.0025 23.7511 32.1692 23.3344 32.1692C22.9177 32.1692 22.5219 32.0025 22.2302 31.7109L17.1886 26.6692C16.5844 26.065 16.5844 25.065 17.1886 24.4609C17.7927 23.8567 18.7927 23.8567 19.3969 24.4609L23.3344 28.3984L32.2927 19.44C32.8969 18.8359 33.8969 18.8359 34.5011 19.44C35.1052 20.0442 35.1052 21.0442 34.5011 21.6484Z" fill="#228B22"/>
</svg>
